<svg xmlns="http://www.w3.org/2000/svg" aria-label="a logo" viewBox="0 0 800 800"><defs><linearGradient id="a" x1="315.858" x2="515.858" y1="565.438" y2="219.027" gradientTransform="translate(10.133 32.282)scale(.9375)" gradientUnits="userSpaceOnUse" spreadMethod="pad"><stop offset="0" stop-color="#aec3b0"/><stop offset=".4" stop-color="#eff6e0"/></linearGradient></defs><circle cx="400" cy="400" r="400" fill="#01161e"/><path fill="#598392" d="M515.015 599.41c25.967-5.347 62.627-55.754 82.485-92.414l-12.984-20.62c-6.11 2.29-16.803 6.109-25.968 6.109-12.983 0-22.148-10.692-22.148-25.967 0-21.385 16.802-110.744 16.802-135.183 0-55.754-35.896-110.744-151.985-110.744-29.023 0-107.688 35.897-158.86 63.391l19.094 61.1 9.165 4.583c20.621-13.748 58.809-32.842 87.831-32.842 38.951 0 62.627 20.622 62.627 54.99v.764L271.38 400.072c-29.022 6.11-48.88 32.84-48.88 66.446 0 72.556 49.644 129.836 112.27 129.836 23.677 0 61.1-32.077 84.777-56.517l9.165 3.819c4.582 35.896 35.896 55.753 86.303 55.753M381.359 498.594c-19.093 0-30.55-17.566-30.55-41.242 0-10.693 3.056-14.511 13.748-16.803l54.99-12.22-.764 65.683c-10.692 2.29-25.967 4.582-37.424 4.582"/><path fill="url(#a)" d="M505.015 589.409c25.967-5.346 62.627-55.753 82.484-92.413l-12.983-20.621c-6.11 2.29-16.803 6.11-25.968 6.11-12.983 0-22.148-10.693-22.148-25.968 0-21.385 16.802-110.743 16.802-135.183 0-55.753-35.896-110.743-151.985-110.743-29.023 0-107.688 35.896-158.86 63.39l19.094 61.1 9.165 4.583c20.621-13.747 58.809-32.841 87.831-32.841 38.951 0 62.627 20.621 62.627 54.99v.763L261.38 390.071c-29.022 6.11-48.88 32.841-48.88 66.446 0 72.556 49.644 129.837 112.27 129.837 23.677 0 61.1-32.077 84.777-56.517l9.165 3.819c4.582 35.896 35.896 55.753 86.303 55.753M371.359 488.595c-19.093 0-30.55-17.567-30.55-41.243 0-10.692 3.055-14.51 13.748-16.802l54.99-12.22-.764 65.682c-10.693 2.291-25.967 4.583-37.424 4.583"/></svg>