<?xml version="1.0" standalone="no"?>
<!DOCTYPE svg PUBLIC "-//W3C//DTD SVG 20010904//EN"
 "http://www.w3.org/TR/2001/REC-SVG-20010904/DTD/svg10.dtd">
<svg version="1.0" xmlns="http://www.w3.org/2000/svg"
 width="700.000000pt" height="700.000000pt" viewBox="0 0 700.000000 700.000000"
 preserveAspectRatio="xMidYMid meet">
<metadata>
Created by potrace 1.11, written by Peter Selinger 2001-2013
</metadata>
<g transform="translate(0.000000,700.000000) scale(0.100000,-0.100000)"
fill="#000000" stroke="none">
<path d="M3240 6764 c-19 -2 -78 -9 -130 -15 -1314 -146 -2435 -1121 -2774
-2412 -80 -304 -101 -476 -101 -837 0 -300 6 -370 46 -595 223 -1235 1163
-2249 2382 -2569 304 -80 476 -101 837 -101 361 0 533 21 837 101 1219 320
2159 1334 2382 2569 40 225 46 295 46 595 0 300 -6 370 -46 595 -223 1235
-1163 2249 -2382 2569 -289 76 -448 97 -787 101 -151 2 -291 1 -310 -1z m495
-1359 c448 -25 827 -181 1033 -426 122 -145 204 -356 218 -563 9 -119 -3 -233
-82 -781 -36 -247 -68 -504 -71 -570 -5 -110 -4 -125 17 -173 28 -65 87 -118
145 -130 52 -11 148 1 233 29 75 25 66 31 142 -91 l53 -85 -38 -70 c-58 -107
-214 -338 -308 -455 -122 -152 -276 -296 -366 -343 -61 -31 -83 -37 -135 -37
-241 0 -491 79 -623 195 -86 76 -152 197 -178 325 -3 18 -16 30 -46 42 l-41
17 -121 -111 c-341 -312 -553 -438 -741 -438 -255 0 -549 139 -736 348 -122
135 -227 331 -279 517 -39 137 -53 242 -53 390 -1 145 17 227 74 345 69 142
209 263 353 305 28 8 370 73 760 145 391 71 720 132 733 135 22 5 23 9 17 63
-26 231 -140 373 -357 449 -100 35 -294 43 -418 18 -183 -37 -417 -132 -606
-247 l-91 -55 -45 23 -44 22 -88 284 c-49 155 -91 291 -93 300 -4 13 41 40
218 129 473 236 854 396 1114 466 158 42 171 43 450 28z"/>
<path d="M3400 3321 c-305 -69 -338 -79 -364 -115 -42 -55 -29 -243 24 -347
31 -60 85 -114 138 -139 38 -18 63 -22 137 -21 92 1 304 28 327 42 19 12 25
639 6 638 -7 0 -128 -27 -268 -58z"/>
</g>
</svg>
