<?xml version="1.0" standalone="no"?>
<!DOCTYPE svg PUBLIC "-//W3C//DTD SVG 20010904//EN"
 "http://www.w3.org/TR/2001/REC-SVG-20010904/DTD/svg10.dtd">
<svg version="1.0" xmlns="http://www.w3.org/2000/svg"
 width="700.000000pt" height="700.000000pt" viewBox="0 0 700.000000 700.000000"
 preserveAspectRatio="xMidYMid meet">
<metadata>
Created by potrace 1.11, written by Peter Selinger 2001-2013
</metadata>
<g transform="translate(0.000000,700.000000) scale(0.100000,-0.100000)"
fill="#000000" stroke="none">
<path d="M3285 6994 c-203 -20 -276 -28 -375 -45 -610 -105 -1195 -376 -1665
-772 -95 -81 -310 -294 -394 -392 -468 -542 -742 -1176 -833 -1925 -17 -137
-17 -583 0 -720 69 -569 227 -1028 514 -1491 145 -236 311 -440 525 -649 204
-200 371 -332 592 -468 463 -287 922 -445 1491 -514 137 -17 583 -17 720 0
569 69 1028 227 1491 514 360 222 692 528 958 882 323 430 549 960 640 1501
38 223 46 327 46 585 0 258 -8 362 -46 585 -105 627 -382 1216 -800 1700 -84
98 -299 311 -394 392 -518 437 -1148 710 -1845 798 -117 15 -536 28 -625 19z
m1997 -1389 c41 -30 47 -39 43 -62 -3 -16 -95 -716 -205 -1558 l-199 -1530
-17 -465 c-9 -256 -17 -466 -18 -467 -4 -5 -1516 -96 -1521 -91 -3 2 24 213
59 469 35 255 62 467 59 471 -2 5 -33 8 -68 8 l-63 0 -72 -138 c-153 -292
-319 -557 -481 -764 l-83 -108 -111 0 c-85 0 -129 5 -195 24 -542 150 -876
427 -1009 836 -127 387 -97 987 72 1485 157 458 399 836 757 1180 297 285 630
492 1045 650 66 25 131 45 145 45 14 0 216 -33 450 -74 l425 -75 460 99 c253
54 465 99 470 99 6 0 31 -15 57 -34z"/>
<path d="M3103 4460 c-156 -31 -267 -188 -319 -449 -56 -281 -60 -802 -9
-1034 39 -175 111 -236 215 -182 149 77 362 452 662 1165 56 134 71 183 82
260 7 52 12 97 10 99 -3 4 -586 151 -594 150 -3 -1 -24 -5 -47 -9z"/>
</g>
</svg>
