<?xml version="1.0" standalone="no"?>
<!DOCTYPE svg PUBLIC "-//W3C//DTD SVG 20010904//EN"
 "http://www.w3.org/TR/2001/REC-SVG-20010904/DTD/svg10.dtd">
<svg version="1.0" xmlns="http://www.w3.org/2000/svg"
 width="700.000000pt" height="700.000000pt" viewBox="0 0 700.000000 700.000000"
 preserveAspectRatio="xMidYMid meet">
<metadata>
Created by potrace 1.11, written by Peter Selinger 2001-2013
</metadata>
<g transform="translate(0.000000,700.000000) scale(0.100000,-0.100000)"
fill="#000000" stroke="none">
<path d="M3250 6994 c-463 -42 -865 -147 -1248 -330 -998 -474 -1712 -1385
-1932 -2462 -54 -266 -64 -378 -64 -702 0 -324 10 -436 64 -702 280 -1372
1356 -2448 2728 -2728 266 -54 378 -64 702 -64 324 0 436 10 702 64 1372 280
2448 1356 2728 2728 54 266 64 378 64 702 0 324 -10 436 -64 702 -280 1372
-1356 2448 -2728 2728 -238 48 -373 61 -652 65 -140 1 -275 1 -300 -1z m2201
-1230 c27 -20 49 -41 49 -47 0 -7 -99 -770 -219 -1697 l-219 -1685 -17 -490
c-10 -269 -18 -491 -19 -491 -2 -3 -1640 -103 -1642 -101 -2 2 100 768 131
985 l6 43 -77 -3 -77 -3 -77 -145 c-161 -307 -325 -570 -490 -788 -131 -174
-115 -162 -224 -162 -201 0 -588 141 -827 300 -189 126 -361 331 -442 525 -83
197 -117 380 -124 675 -6 231 7 399 48 615 152 819 635 1557 1324 2024 295
200 765 421 897 421 29 0 244 -34 479 -75 235 -41 440 -75 456 -75 15 1 246
47 513 104 267 58 489 105 494 105 4 1 30 -15 57 -35z"/>
<path d="M3040 4512 c-70 -26 -159 -121 -205 -217 -44 -93 -88 -260 -105 -395
-33 -279 -31 -718 5 -922 64 -364 230 -367 465 -7 128 196 290 527 487 994 73
174 86 213 99 304 8 57 13 105 11 107 -1 1 -138 37 -304 78 -321 81 -374 87
-453 58z"/>
</g>
</svg>
