<?xml version="1.0" standalone="no"?>
<!DOCTYPE svg PUBLIC "-//W3C//DTD SVG 20010904//EN"
 "http://www.w3.org/TR/2001/REC-SVG-20010904/DTD/svg10.dtd">
<svg version="1.0" xmlns="http://www.w3.org/2000/svg"
 width="700.000000pt" height="700.000000pt" viewBox="0 0 700.000000 700.000000"
 preserveAspectRatio="xMidYMid meet">
<metadata>
Created by potrace 1.11, written by Peter Selinger 2001-2013
</metadata>
<g transform="translate(0.000000,700.000000) scale(0.100000,-0.100000)"
fill="#000000" stroke="none">
<path d="M3240 6764 c-19 -2 -78 -9 -130 -15 -1314 -146 -2435 -1121 -2774
-2412 -80 -304 -101 -476 -101 -837 0 -300 6 -370 46 -595 223 -1235 1163
-2249 2382 -2569 304 -80 476 -101 837 -101 361 0 533 21 837 101 1219 320
2159 1334 2382 2569 40 225 46 295 46 595 0 300 -6 370 -46 595 -223 1235
-1163 2249 -2382 2569 -289 76 -448 97 -787 101 -151 2 -291 1 -310 -1z m500
-1359 c560 -33 974 -256 1150 -619 71 -147 106 -332 95 -506 -3 -58 -40 -342
-81 -633 -41 -290 -75 -565 -75 -611 -2 -106 18 -170 70 -220 70 -68 174 -76
330 -25 l64 22 16 -22 c9 -11 38 -57 64 -101 l49 -79 -33 -58 c-219 -389 -519
-736 -712 -823 -90 -41 -359 -12 -529 57 -193 78 -329 230 -367 409 -13 59
-14 61 -59 77 l-45 17 -111 -108 c-229 -223 -452 -377 -615 -426 -133 -39
-355 -4 -532 84 -372 185 -612 560 -660 1031 -34 342 76 592 321 731 25 14 68
32 95 41 28 9 372 75 765 147 393 71 725 132 736 135 19 4 21 10 17 52 -14
149 -56 246 -144 334 -175 175 -483 208 -832 88 -118 -40 -287 -120 -403 -191
l-91 -55 -46 23 c-33 17 -48 32 -56 56 -79 252 -171 551 -171 558 0 16 505
266 765 378 188 81 438 174 558 206 167 46 190 47 467 31z"/>
<path d="M3400 3321 c-327 -74 -339 -78 -367 -120 -19 -28 -23 -47 -23 -110 0
-177 71 -316 189 -372 37 -17 63 -21 136 -20 89 0 304 28 325 41 8 5 13 104
17 324 5 267 4 316 -8 315 -8 0 -129 -27 -269 -58z"/>
</g>
</svg>
