<?xml version="1.0" standalone="no"?>
<!DOCTYPE svg PUBLIC "-//W3C//DTD SVG 20010904//EN"
 "http://www.w3.org/TR/2001/REC-SVG-20010904/DTD/svg10.dtd">
<svg version="1.0" xmlns="http://www.w3.org/2000/svg"
 width="700.000000pt" height="700.000000pt" viewBox="0 0 700.000000 700.000000"
 preserveAspectRatio="xMidYMid meet">
<metadata>
Created by potrace 1.11, written by Peter Selinger 2001-2013
</metadata>
<g transform="translate(0.000000,700.000000) scale(0.100000,-0.100000)"
fill="#000000" stroke="none">
<path d="M3240 6764 c-19 -2 -78 -9 -130 -15 -1314 -146 -2435 -1121 -2774
-2412 -80 -304 -101 -476 -101 -837 0 -300 6 -370 46 -595 223 -1235 1163
-2249 2382 -2569 304 -80 476 -101 837 -101 361 0 533 21 837 101 1219 320
2159 1334 2382 2569 40 225 46 295 46 595 0 300 -6 370 -46 595 -223 1235
-1163 2249 -2382 2569 -289 76 -448 97 -787 101 -151 2 -291 1 -310 -1z m500
-1359 c185 -11 409 -56 555 -110 394 -148 623 -416 682 -800 22 -143 13 -244
-67 -815 -87 -619 -80 -561 -81 -652 -1 -100 20 -163 70 -212 70 -68 174 -76
330 -25 l64 22 16 -22 c9 -11 38 -57 64 -101 l49 -79 -33 -58 c-219 -389 -519
-736 -712 -823 -74 -34 -302 -18 -457 31 -237 75 -396 233 -439 435 -13 59
-14 61 -59 77 l-45 17 -111 -108 c-229 -223 -452 -377 -615 -426 -137 -40
-357 -4 -544 90 -361 181 -601 560 -648 1025 -32 323 65 566 284 709 34 22 89
49 122 60 33 10 382 78 775 150 393 71 724 132 736 135 19 4 20 9 12 83 -20
208 -146 362 -351 428 -111 36 -293 44 -417 19 -183 -37 -417 -132 -606 -247
l-91 -55 -46 23 c-33 17 -48 32 -56 56 -79 251 -171 551 -171 558 0 11 129 78
410 214 471 227 857 374 1066 405 57 9 111 8 314 -4z"/>
<path d="M3400 3321 c-319 -72 -339 -79 -367 -121 -19 -27 -23 -47 -23 -109 0
-177 71 -316 189 -372 37 -17 63 -21 136 -20 89 0 304 28 325 41 8 5 13 107
17 324 5 268 4 316 -8 315 -8 0 -129 -27 -269 -58z"/>
</g>
</svg>
